<?xml version="1.0" encoding="utf-8"?>
<!-- Generator: Adobe Illustrator 22.0.1, SVG Export Plug-In . SVG Version: 6.00 Build 0)  -->
<svg version="1.1" id="Layer_1" xmlns="http://www.w3.org/2000/svg" xmlns:xlink="http://www.w3.org/1999/xlink" x="0px" y="0px"
	 viewBox="0 0 1024 584.2" style="enable-background:new 0 0 1024 584.2;" xml:space="preserve">
<style type="text/css">
	.st0{fill:#FF6600;}
	.st1{fill:#F16723;}
</style>
<g>
	<g id="XMLID_126_">
		<path id="XMLID_174_" class="st0" d="M904.8,403.4c-1.8-0.2-2.6-0.8-2.6-2.6c-0.1-3.2-0.1-6.4-0.3-9.5c-1-15.5-2-30.9-3-46.4
			c-0.4-6.5-0.8-13-1.3-19.5c-0.4-4.9,1.2-6.8,6.1-7.1c0.6,0,1.3,0,1.9-0.2c0.6-0.3,1.3-0.9,1.3-1.4c0.1-3.7,0.1-7.4,0.1-11.3
			c-1.4,0-2.3,0-3.3,0c-7.3,0-14.5,0-21.8,0c-2.6,0-5.9-0.8-7.7,0.5c-1.8,1.2-2.3,4.5-3.2,6.9c-6.3,16.8-12.6,33.5-19,50.3
			c-2.1,5.6-4.2,11.1-6.6,17.3c-0.8-1.3-1.3-2-1.6-2.8c-8.5-23.2-17-46.4-25.4-69.6c-0.7-2-1.6-2.7-3.7-2.7c-9.1,0.1-18.2,0-27.2,0
			c-0.9,0-1.7,0.1-2.9,0.2c0,2.3,0,4.4,0,6.5c0,5.9,0,5.9,5.7,6.5c0.2,0,0.4,0.1,0.5,0.1c2,0.2,2.7,1,2.5,3.2
			c-0.6,6.7-1,13.4-1.5,20.1c-0.9,13.6-1.8,27.1-2.7,40.7c-0.4,5.8-0.9,11.6-1.4,17.3c-0.2,2.1-1.3,3.3-3.3,3.7
			c-1.9,0.4-3.8,0.8-6,1.2c0,3.2,0.1,6.2,0,9.3c-0.1,2.3,0.8,3,3,2.9c8.9-0.1,17.8,0,26.7,0c6.9,0,6.9,0,6.9-6.8
			c0-6.2,0-6.3-6.3-6.7c-1.8-0.1-2.3-0.8-2.2-2.5c0.5-7.9,0.9-15.7,1.4-23.6c0.6-10.8,1.1-21.5,1.7-32.3c0.2-2.8,0.5-5.7,0.7-8.5
			c1.1,0.8,1.6,1.6,2,2.6c8,20.9,15.9,41.8,23.9,62.6c0.7,1.7,1.5,2.6,3.5,2.5c2.9-0.2,5.8-0.3,8.7,0c3.1,0.3,4.6-0.9,5.7-3.8
			c8-20.9,16.3-41.6,24.5-62.4c0.3-0.8,0.9-1.5,1.8-2.8c0.2,1.3,0.2,1.8,0.3,2.2c0.7,14.5,1.5,29,2.2,43.4
			c0.3,6.1,0.6,12.1,0.9,18.2c0.1,2.8-1,4.5-3.9,4.9c-1.6,0.2-3.2,0.4-5.1,0.7c0,3.2,0.1,6.2,0,9.3c-0.1,2.4,0.7,3.1,3.1,3.1
			c9-0.1,18,0,27,0c6.6,0,6.7,0,6.6-6.6C911.1,402.8,912.6,404.3,904.8,403.4z"/>
		<path id="XMLID_178_" class="st0" d="M764.7,390.2c-3.9-0.5-7.8-0.7-11.6-1.1c-1.9-0.2-2.3,0.7-2.3,2.4c0.1,2.2,0.1,4.4-0.1,6.5
			c-0.3,3.2-1.5,4.2-4.8,4.3c-8.3,0-16.5-0.1-24.8,0.1c-2.4,0-3.1-0.9-3.1-3.2c0.1-9.4,0.1-18.9,0-28.3c0-2.8,0.9-3.6,3.6-3.5
			c11.2,0.1,22.3,0,33.5,0.1c2.2,0,3.1-0.5,3-2.9c-0.2-3.1-0.2-6.2,0-9.3c0.1-2.4-0.8-3.1-3.1-3c-11.3,0.1-22.5,0-33.8,0.1
			c-2.5,0-3.2-0.8-3.2-3.3c0.1-8.6,0.1-17.2,0-25.9c0-2.2,0.6-3,2.9-3c7.9,0.1,15.8,0,23.7,0.1c3.3,0,4.3,1,4.4,4.4
			c0,2.3,0,4.7,0,7.5c4.7-0.3,8.9-0.7,13.1-0.9c2.3-0.1,3.1-1,3-3.4c-0.2-6.4-0.2-12.9,0-19.3c0.1-2.6-0.7-3.4-3.3-3.4
			c-21.8,0.1-43.6,0.1-65.4,0.1c-7.4,0-7.4,0-7.4,7.5c0,5.4,0,5.6,5.4,6c2.6,0.2,3.3,1.1,3.3,3.6c-0.1,25.2,0,50.5-0.1,75.7
			c0,4.5-1,5.5-5.4,6.1c-0.6,0.1-1.3,0.2-1.9,0.2c-1.4,0-1.9,0.6-1.9,2c0.1,2.4,0,4.7,0,7.1c0,3.5,0,3.5,3.7,3.5
			c23.4,0,46.8,0,70.3,0c0.5,0,1.1,0,1.6,0c1.5,0.1,2.1-0.7,2.1-2.1c0-7.6,0-15.3-0.1-22.9C766.1,391.3,765.2,390.2,764.7,390.2z"/>
		<path id="XMLID_179_" class="st0" d="M587.9,230.3c1.5-0.1,2.4-0.7,2.4-2.3c0-2.6,0.1-5.3-0.1-7.9c0-0.6-1.1-1.7-1.7-1.7
			c-11.1-0.1-22.2-0.1-33.2,0c-0.6,0-1.7,0.9-1.7,1.4c-0.2,3.4-0.1,6.8-0.1,10.4c2.7,0.2,5,0.4,7.4,0.5c2.1,0.1,3,0.9,2.9,3.2
			c-0.1,6.8-0.1,13.6,0,20.4c0,2.1-0.7,3.4-2.6,3.8c-3.8,0.8-7.5,1.9-11.4,2.3c-12.9,1.3-23.5-3.6-28.3-16.5
			c-5-13.4-5.4-27.2-1.6-40.9c2.4-8.7,7.4-15.8,16.2-19.3c8.1-3.3,16.5-3.2,24.9-1.7c5.3,0.9,5.7,1.8,5.7,7.1c0,2.4-0.1,4.7,0.1,7.1
			c0.1,0.7,1.1,1.8,1.7,1.8c3.6,0,7.2-0.3,10.9-0.5c1.8-0.1,2.7-0.9,2.6-2.9c-0.1-4.8,0-9.6,0-14.4c0-9.3,0-9.3-9-11.8
			c-0.1,0-0.2,0-0.3-0.1c-13.9-3.2-27.8-4.1-41.6-0.1c-8,2.3-15,6.4-20.6,12.6c-7.4,8.1-10.7,18.1-11.8,28.7
			c-1.2,11.3-1.1,22.6,1.8,33.8c3.4,12.9,10.3,22.8,22.9,28.3c8.4,3.7,17.3,4.3,26.4,4c10.7-0.3,20.8-2.5,30.1-8
			c1.8-1.1,2.5-2.3,2.5-4.3c-0.1-8.8,0-17.6,0-26.4C582.2,232.1,583.4,230.7,587.9,230.3z"/>
		<path id="XMLID_180_" class="st0" d="M558.5,356.3c-8.6-3.7-17.6-6.7-26.2-10.3c-5.6-2.4-7.6-7.3-7.3-13.1c0.2-5.4,2.8-9.4,8-11.6
			c7.2-3,14.6-2.3,21.9-0.7c2.6,0.6,3.6,2.6,3.7,5.1c0.1,2.6,0.2,5.3,0,7.9c-0.2,2.8,1.1,3.2,3.4,3c3.3-0.4,6.7-0.7,10-0.9
			c1.9-0.1,2.5-0.8,2.5-2.7c-0.1-7.2-0.1-14.3,0-21.5c0-1.7-0.7-2.8-2.3-3.2c-4-1.1-7.9-2.5-12-3.3c-10.3-2.1-20.6-2.5-31,0
			c-12,3-23.9,11.4-25,28.4c-0.6,8.9,0.7,17.3,7.8,23.6c5.1,4.5,11.2,7.2,17.6,9.4c6.6,2.2,13.2,4.4,19.6,7.1
			c5.7,2.4,8,7.3,7.8,13.4c-0.2,6.9-3.2,12-9.9,14.4c-7.2,2.6-14.7,2-22,0.7c-4.4-0.8-5.4-2.5-5.4-7.1c0-2.5-0.1-5.1,0-7.6
			c0.1-1.8-0.6-2.5-2.4-2.3c-4.4,0.5-8.8,0.9-13.6,1.3c-0.1,0.6-0.2,1.1-0.2,1.7c0,7.4,0.1,14.9-0.1,22.3c0,2.3,0.7,3.6,2.9,4.1
			c4.7,1.1,9.4,2.7,14.2,3.3c11.5,1.5,23.1,1.9,34.5-1.1c13.4-3.5,22.6-14.7,22.9-28.5c0.1-5.5,0.4-11.1-1.8-16.4
			C573,363.4,566,359.4,558.5,356.3z"/>
		<g id="XMLID_135_">
			<path id="XMLID_137_" class="st0" d="M699.5,266c0-4.7,0-4.8-4.7-4.9c-2.1-0.1-3.6-0.6-4.3-2.8c-5.8-16.6-11.7-33.3-17.6-49.9
				c-4.5-12.6-9-25.2-13.4-37.9c-0.8-2.3-2-3.2-4.5-3.1c-8.1,0.2-16.2,0-24.2,0.1c-8.3,0.1-7.1-1.1-7.2,7.2c-0.1,5.7,0,5.3,5.1,5.5
				c2.9,0.1,3.3,0.9,2.3,3.6c-2.6,7.4-5.2,14.9-7.7,22.3c-5.8,16.8-11.6,33.7-17.4,50.5c-0.9,2.6-2.3,4.4-5.3,4.7
				c-1.2,0.1-2.4,0.6-3.9,0.9c0,2.9,0.1,5.7,0,8.5c-0.1,2.3,0.8,3,3,2.9c8.3-0.1,16.7,0,25,0c6.4,0,6.5,0,6.4-6.5
				c0-1.9,0.5-4.3-0.5-5.5c-0.8-1-3.3-0.5-5.1-0.7c-2-0.1-2.5-0.9-1.7-2.9c1.5-4.2,2.9-8.4,4.2-12.6c0.5-1.6,1.3-2.2,2.9-2.2
				c10.8,0,21.6,0,32.4,0c1.8,0,2.6,0.7,3.1,2.4c0.9,3.1,2.1,6.2,3.2,9.2c1.6,4.4,1,5.4-3.5,6.2c-4,0.7-4.1,0.7-4.1,4.7
				c0,1.7,0.1,3.5,0,5.2s0.6,2.5,2.3,2.5c11.1,0,22.1,0,33.2,0c1.7,0,2.3-0.7,2.2-2.3C699.4,269.7,699.5,267.8,699.5,266z
				 M659.1,230.3c-8.2,0-16.3,0-24.5,0c-2.4,0-2.6-0.9-1.9-3c4.3-13.1,8.6-26.3,12.8-39.4c0.3-0.9,0.8-1.8,1.2-2.7
				c0.2,0,0.5,0,0.7,0.1c1.3,3.9,2.7,7.8,4,11.7c3.3,10.1,6.4,20.3,9.8,30.4C662.1,229.9,661.2,230.3,659.1,230.3z"/>
		</g>
		<g id="XMLID_125_">
			<g id="XMLID_145_">
				<path id="XMLID_139_" class="st0" d="M797.8,261.2c-2.7,0.4-4.3-0.7-5.5-3.3c-1.9-4.4-4-8.7-6.4-12.9
					c-4.2-7.2-5.9-16.3-15.6-20.2c1.7-0.8,2.6-1.2,3.5-1.6c4.7-1.9,8.9-4.5,12-8.6c5.3-7.2,6.4-15.3,5.1-24
					c-1.3-8.6-5.7-14.7-13.4-18.5c-6.7-3.4-14-4.3-21.4-4.4c-13.5-0.2-27,0-40.6,0c-6.7,0-6.7,0-6.7,6.8c0,6.4-0.1,5.7,5.5,5.8
					c2.1,0,2.9,0.8,2.9,2.9c0,24.7,0,49.4,0,74c0,2.5-1.1,3.9-3.7,4.1c-0.8,0.1-1.6,0.3-2.4,0.4c-2,0.2-2.9,1.1-2.7,3.2
					c0.2,1.9,0.2,3.8,0,5.7c-0.2,2.6,0.9,3.3,3.3,3.3c8.1-0.1,16.2,0,24.2,0c7.8,0,7.8,0,7.8-7.9c0-4.5,0-4.5-4.4-4.7
					c-2-0.1-2.9-0.8-2.9-2.9c0.1-8,0.1-16,0-24c0-1.9,0.7-2.8,2.7-2.8c4,0.1,8-0.1,12,0.1c3.8,0.2,7.8,0.7,9.9,4.5
					c3.9,7,7.5,14,11.1,21.1c1.1,2.1,0.1,3.6-2.4,4.1c-1.8,0.4-3.5,0.6-5.5,1c0,3.3-0.1,6.5,0.1,9.6c0,0.6,1.3,1.7,2,1.7
					c10.9,0.1,21.8,0.1,32.7,0.1c1.6,0,2.3-0.7,2.3-2.3c0-2.3-0.2-4.6,0-6.8C801.6,261.9,800.6,260.8,797.8,261.2z M755.6,218.1
					c-5.6,0.4-11.2,0.1-16.8,0.2c-1.8,0-2.3-0.8-2.3-2.5c0.1-5.3,0-10.7,0-16s0.1-10.5,0-15.8c0-2.1,0.8-2.9,2.9-2.8
					c6.7,0.4,13.4,0.5,20,1.1c7.6,0.8,12.2,6.1,12.1,13.8c-0.1,4.1-0.2,8.4-1.6,12.2C767.4,214.7,762,217.7,755.6,218.1z"/>
			</g>
		</g>
		<g id="XMLID_144_">
			<path id="XMLID_140_" class="st0" d="M909.2,265.5c0-4.8,0.3-4.4-4.2-4.3c-3,0.1-4.5-1.1-5.2-3.9c-0.6-2.3-1.5-4.4-2.3-6.7
				c-6.4-17.9-12.7-35.8-19.1-53.7c-3.2-8.9-6.3-17.9-9.6-26.8c-0.4-1-1.7-2.4-2.6-2.4c-10.2-0.2-20.3-0.1-30.5-0.1
				c-1.5,0-2.2,0.6-2.2,2.1c0,2.8-0.1,5.6,0.1,8.4c0.1,0.7,1.1,1.5,1.9,1.9c0.7,0.3,1.6,0.1,2.4,0.2c3.3,0.3,3.6,0.8,2.5,3.9
				c-4,11.6-8,23.3-12,34.9c-4.4,12.7-8.7,25.3-13.2,37.9c-0.6,1.6-2.1,3.1-3.6,4.1c-1.6,1-4.4,0.7-5.3,2c-0.9,1.4-0.3,3.8-0.3,5.8
				c0,0.6,0.1,1.3,0,1.9c-0.4,2.4,0.8,3.1,3.1,3.1c8.3-0.1,16.5,0,24.8,0c6.6,0,6.6,0,6.6-6.6c0-5.5,0-5.6-5.5-6.1
				c-2-0.2-2.5-1-1.8-2.8c1.5-4.4,2.8-8.8,4.4-13.1c0.3-0.7,1.6-1.6,2.4-1.6c11-0.1,22-0.1,32.9,0c0.9,0,2.2,1.1,2.6,2
				c1.3,3.1,2.2,6.3,3.4,9.4c1.6,4.3,0.9,5.6-3.5,6.3c-4,0.7-4,0.7-4,4.7c0,1.6,0.1,3.3,0,4.9c-0.2,2.2,0.7,2.9,2.8,2.8
				c5.4-0.1,10.7,0,16.1,0s10.7-0.1,16.1,0c2.2,0,2.9-0.8,2.8-2.9C909.1,269.1,909.2,267.3,909.2,265.5z M868.9,230.3
				c-8.2,0-16.3,0-24.5,0c-2.2,0-2.8-0.6-2-2.9c4.6-13.6,9-27.3,13.5-40.9c0.1-0.4,0.4-0.8,1-2c1.3,3.7,2.3,6.6,3.3,9.5
				c3.6,11.1,7.1,22.2,10.7,33.3C871.7,229.9,871.6,230.3,868.9,230.3z"/>
		</g>
		<path id="XMLID_187_" class="st0" d="M675,305.2c-28.5,0.1-57,0-85.5,0.1c-1,0-1.9,0.1-3.1,0.2c0,8.4,0.1,16.6-0.1,24.7
			c0,2.4,1,3.2,3.1,3.3c3.7,0.2,7.4,0.5,11.1,0.9c1.6,0.2,1.8-0.6,1.8-1.8c0-2.8-0.1-5.6,0.1-8.4c0.1-2.4,1.3-3.9,3.9-3.9
			c4.5,0,9.1,0,13.6,0c1.7,0,2.2,0.7,2.2,2.3c0,25.8,0,51.6,0,77.3c0,2.1-0.9,3.5-3,3.8c-2.9,0.4-5.9,0.8-9.2,1.2
			c0,3.6-0.1,7.2,0.1,10.8c0,0.5,1.2,1.4,1.8,1.4c13.5,0.1,27,0.1,40.6,0.1c1.5,0,2.1-0.6,2.1-2.1c0-2.9-0.1-5.8,0-8.7
			c0-1.6-0.7-2.3-2.3-2.3c-2.4-0.1-4.9-0.4-7.3-0.4c-2.1,0-2.6-0.8-2.6-2.8c0-26,0.1-51.9,0-77.9c0-2.1,0.8-2.7,2.7-2.6
			c4.2,0.1,8.4,0,12.5,0c3.6,0,4.4,0.9,4.4,4.6c0,3.1,0,6.3,0,9.6c4.5-0.3,8.6-0.6,12.8-0.8c2.5-0.1,3.5-1,3.4-3.7
			c-0.2-7.2-0.2-14.3,0-21.5C678.2,305.8,677.4,305.2,675,305.2z"/>
		<path id="XMLID_22_" class="st0" d="M434.2,324.4h38c1.9-10.5,2.9-21.3,2.9-32.3s-1-21.8-2.9-32.3h-38l0,0
			c-3.6-15.8-9.9-30.6-18.2-44l0,0l26.9-26.9c-12.4-17.8-27.9-33.3-45.7-45.7l-26.9,26.9l0,0c-13.3-8.4-28.2-14.6-44-18.2l0,0v-38
			C315.8,112,305,111,294,111s-21.8,1-32.3,2.9v38l0,0c-15.8,3.6-30.6,9.9-44,18.2l0,0l-26.9-26.9c-17.8,12.4-33.3,27.9-45.7,45.7
			l26.9,26.9l0,0c-8.4,13.3-14.6,28.2-18.2,44l0,0h-38c-1.9,10.5-2.9,21.3-2.9,32.3s1,21.8,2.9,32.3h38l0,0
			c3.6,15.8,9.9,30.6,18.2,44l0,0l-27,26.9c12.4,17.8,27.9,33.3,45.7,45.7l26.9-26.9l0,0c13.3,8.4,28.2,14.6,44,18.2l0,0v38
			c10.5,1.9,21.3,2.9,32.3,2.9s21.8-1,32.3-2.9v-38l0,0c15.8-3.6,30.6-9.9,44-18.2l0,0l26.9,26.9l0,0c8.9-6.2,17.2-13.1,24.9-20.8
			l0,0c7.6-7.6,14.6-16,20.8-24.9L416,368.5l0,0C424.3,355.1,430.5,340.3,434.2,324.4C434.2,324.5,434.2,324.4,434.2,324.4z
			 M396.2,318.1H396c-1,3.7-2.3,7.3-3.6,10.8c-11.5,29.3-31.9,49.8-61.2,61.1c-18.2,7-37.1,8.7-56.2,4.7
			c-40.6-8.6-67.4-33-80.4-72.2c-5.4-16.2-6.2-33.1-2.6-50c8.7-40.6,32.9-67.6,72.2-80.4c40-13.1,85.6,1.4,111.7,34.3
			c1.6,2,1.6,3.2-0.6,4.9c-7.5,5.8-14.8,11.8-22.1,17.7c-1.6,1.3-4,1-5.3-0.5c-9.9-11.8-22.3-19.9-37.2-23.4
			c-30.1-7-60.6,5.8-76.2,33.2C213,296,231.7,344,273,357.7c35.6,11.8,74.1-7.1,86.7-42.4c0.3-0.8,0.5-1.7,0.8-2.7
			c0.2-0.9-0.4-1.7-1.3-1.7h-1.8c-16.8,0-33.6,0-50.4,0.1c-0.1,0-0.3,0-0.4,0l0,0c-0.4,0-0.8,0-1.2-0.1c-1.1-0.1-2.4-0.4-3.7-0.7
			c-5.4-1.7-9.6-6-11.1-11.5c-0.4-1.6-0.6-3.3-0.6-4.9c0.3-7.5,5.5-13.7,12.5-15.5c1-0.2,1.9-0.4,2.7-0.4c0.4,0,0.8-0.1,1.3-0.1l0,0
			c29.5,0.1,59,0.1,88.5,0c0.3,0,0.6,0,0.8,0l0,0c1.5,0,2.7,1.1,2.9,2.6c0.4,3.9,0.7,7.9,0.7,11.9
			C399.4,301.1,398.3,309.8,396.2,318.1z"/>
	</g>
	<path class="st1" d="M940.1,157.1v-1.3c0-1.3-0.3-2.3-0.9-3.2c-0.6-0.9-1.5-1.5-2.8-1.8c1.1-0.5,2-1.1,2.5-1.9
		c0.6-0.8,0.9-1.7,0.9-2.8c0-2-0.7-3.5-2.1-4.6c-1.4-1.1-3.4-1.7-5.8-1.7h-8.1v21.1h4.9v-8.1h3.4c1,0,1.8,0.3,2.3,0.8
		s0.8,1.3,0.8,2.3v1.3c0,0.6,0.1,1.4,0.2,2.1c0.1,0.8,0.4,1.3,0.8,1.6h5v-0.3c-0.4-0.3-0.7-0.8-0.9-1.5
		C940.1,158.3,940.1,157.7,940.1,157.1z M934.1,148.3c-0.5,0.4-1.3,0.7-2.3,0.7h-3.2v-5.5h3.2c1,0,1.7,0.3,2.3,0.8
		c0.5,0.5,0.8,1.2,0.8,2.1C934.9,147.2,934.7,147.8,934.1,148.3z M931.8,127.7c-12.5,0-22.5,10.1-22.5,22.5
		c0,12.5,10.1,22.5,22.5,22.5c12.5,0,22.5-10.1,22.5-22.5S944.2,127.7,931.8,127.7z M931.8,169.2c-10.4,0-18.9-8.5-18.9-18.9
		s8.5-18.9,18.9-18.9s18.9,8.5,18.9,18.9S942.2,169.2,931.8,169.2z"/>
</g>
</svg>
